<?xml version="1.0" encoding="UTF-8"?>
<svg width="512px" height="512px" viewBox="0 0 512 512" version="1.1" xmlns="http://www.w3.org/2000/svg" xmlns:xlink="http://www.w3.org/1999/xlink">
    <!-- Generator: Sketch 58 (84663) - https://sketch.com -->
    <title>004-clock</title>
    <desc>Created with Sketch.</desc>
    <g id="Page-1" stroke="none" stroke-width="1" fill="none" fill-rule="evenodd">
        <g id="004-clock" fill="#8D99FF" fill-rule="nonzero">
            <path d="M266,356 C266,361.523438 261.523438,366 256,366 C250.476562,366 246,361.523438 246,356 C246,350.476562 250.476562,346 256,346 C261.523438,346 266,350.476562 266,356 Z" id="Path"></path>
            <path d="M256,0 C118.085938,0 0,117.703125 0,256 C0,393.902344 117.691406,512 256,512 C393.914062,512 512,394.296875 512,256 C512,118.097656 394.308594,0 256,0 Z M256,492 C128.074219,492 20,383.925781 20,256 C20,128.074219 128.074219,20 256,20 C383.925781,20 492,128.074219 492,256 C492,383.925781 383.925781,492 256,492 Z" id="Shape"></path>
            <path d="M256,66 C151.589844,66 66,150.898438 66,256 C66,360.761719 151.253906,446 256,446 C360.550781,446 446,360.964844 446,256 C446,151.261719 360.746094,66 256,66 Z M349.480469,397.90625 L344.660156,389.5625 C341.898438,384.777344 335.785156,383.136719 331,385.898438 C326.21875,388.660156 324.578125,394.777344 327.339844,399.558594 L332.171875,407.933594 C311.59375,418.277344 289.046875,424.328125 266,425.691406 L266,396 C266,390.476562 261.523438,386 256,386 C250.476562,386 246,390.476562 246,396 L246,425.691406 C222.953125,424.328125 200.40625,418.277344 179.828125,407.933594 L184.660156,399.558594 C187.421875,394.777344 185.78125,388.660156 181,385.898438 C176.214844,383.136719 170.101562,384.777344 167.339844,389.5625 L162.519531,397.90625 C143.296875,385.203125 126.796875,368.703125 114.09375,349.480469 L122.441406,344.660156 C127.222656,341.898438 128.863281,335.785156 126.101562,331 C123.339844,326.21875 117.226562,324.574219 112.441406,327.339844 L104.066406,332.171875 C93.722656,311.59375 87.671875,289.046875 86.308594,266 L116,266 C121.523438,266 126,261.523438 126,256 C126,250.476562 121.523438,246 116,246 L86.308594,246 C87.671875,222.953125 93.722656,200.40625 104.066406,179.828125 L112.441406,184.660156 C117.191406,187.402344 123.320312,185.8125 126.101562,180.996094 C128.863281,176.214844 127.222656,170.097656 122.4375,167.339844 L114.09375,162.519531 C126.796875,143.296875 143.296875,126.796875 162.519531,114.089844 L167.339844,122.4375 C170.113281,127.242188 176.238281,128.847656 180.996094,126.097656 C185.78125,123.339844 187.421875,117.222656 184.660156,112.4375 L179.824219,104.066406 C200.40625,93.722656 222.953125,87.671875 246,86.308594 L246,116 C246,121.523438 250.476562,126 256,126 C261.523438,126 266,121.523438 266,116 L266,86.308594 C289.046875,87.671875 311.59375,93.722656 332.171875,104.066406 L327.339844,112.441406 C324.578125,117.222656 326.21875,123.339844 331,126.101562 C335.761719,128.847656 341.886719,127.242188 344.660156,122.4375 L349.480469,114.09375 C368.703125,126.796875 385.203125,143.296875 397.90625,162.519531 L389.558594,167.339844 C384.777344,170.101562 383.136719,176.214844 385.898438,181 C388.648438,185.765625 394.761719,187.429688 399.558594,184.660156 L407.933594,179.828125 C418.277344,200.40625 424.328125,222.953125 425.6875,246 L396,246 C390.476562,246 386,250.476562 386,256 C386,261.523438 390.476562,265.988281 396,265.988281 L425.691406,265.988281 C424.328125,289.035156 418.277344,311.59375 407.933594,332.171875 L399.558594,327.339844 C394.777344,324.578125 388.660156,326.21875 385.898438,331.003906 C383.136719,335.785156 384.777344,341.902344 389.5625,344.660156 L397.90625,349.480469 C385.203125,368.699219 368.703125,385.203125 349.480469,397.90625 L349.480469,397.90625 Z" id="Shape"></path>
            <path d="M336,246 L286,246 C285.429688,246 284.875,246.058594 284.332031,246.148438 C281.320312,237.519531 274.480469,230.679688 265.851562,227.667969 C265.941406,227.125 266,226.570312 266,226 L266,156 C266,150.476562 261.523438,146 256,146 C250.476562,146 246,150.476562 246,156 L246,226 C246,226.570312 246.058594,227.125 246.148438,227.667969 C234.433594,231.753906 226,242.90625 226,256 C226,272.542969 239.457031,286 256,286 C269.09375,286 280.246094,277.566406 284.332031,265.851562 C284.875,265.941406 285.429688,266 286,266 L336,266 C341.523438,266 346,261.523438 346,256 C346,250.476562 341.523438,246 336,246 L336,246 Z M256,266 C250.484375,266 246,261.515625 246,256 C246,250.484375 250.484375,246 256,246 C261.515625,246 266,250.484375 266,256 C266,261.515625 261.515625,266 256,266 Z" id="Shape"></path>
        </g>
    </g>
</svg>