<?xml version="1.0" encoding="UTF-8"?>
<svg width="512px" height="512px" viewBox="0 0 512 512" version="1.1" xmlns="http://www.w3.org/2000/svg" xmlns:xlink="http://www.w3.org/1999/xlink">
    <!-- Generator: Sketch 58 (84663) - https://sketch.com -->
    <title>013-salary</title>
    <desc>Created with Sketch.</desc>
    <g id="Page-1" stroke="none" stroke-width="1" fill="none" fill-rule="evenodd">
        <g id="013-salary" fill="#8D99FF" fill-rule="nonzero">
            <path d="M79.019,348.99 C77.16,347.13 74.58,346.069 71.95,346.069 C69.319,346.069 66.74,347.13 64.88,348.99 C63.02,350.859 61.95,353.429 61.95,356.069 C61.95,358.7 63.019,361.269 64.88,363.139 C66.74,365 69.319,366.069 71.95,366.069 C74.58,366.069 77.16,365 79.019,363.139 C80.879,361.269 81.95,358.7 81.95,356.069 C81.95,353.439 80.88,350.859 79.019,348.99 Z" id="Path"></path>
            <path d="M390.684,238.508 C368.607,223.69 342.83,215.857 316.14,215.857 L310.3,215.857 C328.66,200.326 340.349,177.14 340.349,151.264 L340.349,87.107 C344.658,79.079 347.11,69.912 347.11,60.18 L347.11,10 C347.11,4.478 342.632,0 337.11,0 L220.745,0 C188.477,0 162.226,26.251 162.226,58.519 L162.226,75.007 C162.226,84.776 165.563,93.774 171.145,100.942 L171.145,151.263 C171.145,177.138 182.833,200.325 201.194,215.856 L195.858,215.856 C165.438,215.856 135.656,226.335 111.996,245.363 C88.695,264.101 72.155,290.374 65.424,319.34 C64.174,324.719 67.521,330.093 72.9,331.343 C73.662,331.52 74.422,331.605 75.172,331.605 C79.718,331.605 83.83,328.485 84.903,323.867 C96.029,275.991 135.829,241.48 183.843,236.501 L248.927,301.585 C250.88,303.537 253.439,304.514 255.998,304.514 C258.557,304.514 261.116,303.537 263.069,301.585 L328.161,236.494 C346.539,238.422 364.104,244.755 379.537,255.113 C384.122,258.191 390.335,256.97 393.413,252.384 C396.491,247.798 395.269,241.585 390.684,238.508 Z M182.227,75.007 L182.227,58.519 C182.227,37.28 199.506,20 220.746,20 L327.112,20 L327.112,60.181 C327.112,80.653 310.457,97.308 289.985,97.308 L204.527,97.308 C192.231,97.308 182.227,87.304 182.227,75.007 Z M256,280.371 L211.485,235.855 L255.363,235.855 C255.492,235.856 255.619,235.865 255.748,235.865 C255.877,235.865 256.004,235.856 256.133,235.855 L300.516,235.855 L256,280.371 Z M256.133,215.856 L255.363,215.856 C219.918,215.646 191.146,186.756 191.146,151.263 L191.146,115.126 C195.354,116.534 199.851,117.308 204.527,117.308 L289.985,117.308 C301.138,117.308 311.548,114.083 320.351,108.534 L320.351,151.263 C320.351,186.756 291.578,215.647 256.133,215.856 Z" id="Shape"></path>
            <path d="M276,370.219 C260.731,370.219 247.783,380.336 243.503,394.219 L140.216,394.219 C135.936,380.336 122.988,370.219 107.719,370.219 C88.971,370.219 73.719,385.471 73.719,404.219 C73.719,409.96 75.155,415.37 77.677,420.118 L49.899,447.896 C45.151,445.373 39.741,443.938 34,443.938 C15.252,443.938 0,459.19 0,477.938 C0,496.686 15.252,511.938 34,511.938 C52.748,511.938 68,496.686 68,477.938 C68,472.197 66.564,466.787 64.042,462.039 L91.82,434.26 C96.568,436.783 101.978,438.218 107.719,438.218 C122.988,438.218 135.936,428.101 140.216,414.218 L243.503,414.218 C247.783,428.101 260.731,438.218 276,438.218 C294.748,438.218 310,422.966 310,404.218 C310,385.47 294.748,370.219 276,370.219 Z M34,491.938 C26.28,491.938 20,485.658 20,477.938 C20,470.218 26.28,463.938 34,463.938 C41.72,463.938 48,470.218 48,477.938 C48,485.658 41.72,491.938 34,491.938 Z M107.719,418.219 C99.999,418.219 93.719,411.939 93.719,404.219 C93.719,396.499 99.999,390.219 107.719,390.219 C115.439,390.219 121.719,396.499 121.719,404.219 C121.719,411.939 115.438,418.219 107.719,418.219 Z M276,418.219 C268.28,418.219 262,411.939 262,404.219 C262,396.499 268.28,390.219 276,390.219 C283.72,390.219 290,396.499 290,404.219 C290,411.939 283.72,418.219 276,418.219 Z" id="Shape"></path>
            <path d="M328.09,356.13 C326.229,354.27 323.649,353.2 321.02,353.2 C318.38,353.2 315.8,354.269 313.94,356.13 C312.081,357.99 311.01,360.569 311.01,363.2 C311.01,365.83 312.08,368.41 313.94,370.269 C315.8,372.139 318.38,373.2 321.02,373.2 C323.65,373.2 326.22,372.139 328.09,370.269 C329.95,368.41 331.01,365.83 331.01,363.2 C331.01,360.569 329.95,358 328.09,356.13 Z" id="Path"></path>
            <path d="M502,172.05 L466.109,172.05 C460.587,172.05 456.109,176.528 456.109,182.05 C456.109,187.572 460.587,192.05 466.109,192.05 L478.026,192.05 L341.288,328.788 C337.383,332.693 337.383,339.025 341.288,342.931 C343.241,344.883 345.8,345.86 348.359,345.86 C350.918,345.86 353.477,344.883 355.43,342.931 L492,206.361 L492,217.94 C492,223.462 496.478,227.94 502,227.94 C507.522,227.94 512,223.462 512,217.94 L512,182.05 C512,176.527 507.522,172.05 502,172.05 Z" id="Path"></path>
            <path d="M235.42,142.1 C233.56,140.241 230.98,139.17 228.35,139.17 C225.71,139.17 223.14,140.24 221.28,142.1 C219.411,143.96 218.35,146.54 218.35,149.18 C218.35,151.81 219.411,154.38 221.28,156.25 C223.14,158.109 225.711,159.17 228.35,159.17 C230.98,159.17 233.56,158.109 235.42,156.25 C237.279,154.38 238.35,151.81 238.35,149.18 C238.35,146.54 237.279,143.96 235.42,142.1 Z" id="Path"></path>
            <path d="M290.439,142.1 C288.58,140.241 286,139.17 283.37,139.17 C280.74,139.17 278.16,140.24 276.3,142.1 C274.44,143.96 273.37,146.54 273.37,149.18 C273.37,151.81 274.439,154.39 276.3,156.25 C278.16,158.109 280.74,159.17 283.37,159.17 C286,159.17 288.58,158.109 290.439,156.25 C292.299,154.39 293.37,151.81 293.37,149.18 C293.37,146.54 292.3,143.96 290.439,142.1 Z" id="Path"></path>
            <path d="M424,336 C375.477,336 336,375.477 336,424 C336,472.523 375.477,512 424,512 C472.523,512 512,472.523 512,424 C512,375.477 472.523,336 424,336 Z M424,492 C386.505,492 356,461.495 356,424 C356,386.505 386.505,356 424,356 C461.495,356 492,386.505 492,424 C492,461.495 461.495,492 424,492 Z" id="Shape"></path>
            <path d="M424.002,414.633 C419.382,414.633 415.479,411.514 415.479,407.821 C415.477,404.129 419.38,401.01 424,401.01 C428.62,401.01 432.523,404.129 432.523,407.821 C432.523,413.343 437.001,417.821 442.523,417.821 C448.045,417.821 452.523,413.343 452.523,407.821 C452.523,396.332 444.793,386.511 433.966,382.703 C433.619,377.495 429.296,373.374 424,373.374 C418.704,373.374 414.381,377.495 414.034,382.703 C403.207,386.511 395.477,396.332 395.477,407.821 C395.477,422.605 408.273,434.633 424,434.633 C428.62,434.633 432.523,437.752 432.523,441.444 C432.523,445.136 428.62,448.255 424,448.255 C419.38,448.255 415.477,445.136 415.477,441.444 C415.477,435.922 410.999,431.444 405.477,431.444 C399.955,431.444 395.477,435.922 395.477,441.444 C395.477,452.957 403.239,462.796 414.101,466.587 C414.758,471.474 418.934,475.247 424.001,475.247 C429.068,475.247 433.244,471.474 433.901,466.587 C444.763,462.796 452.525,452.957 452.525,441.444 C452.525,426.661 439.729,414.633 424.002,414.633 Z" id="Path"></path>
        </g>
    </g>
</svg>