<?xml version="1.0" encoding="UTF-8"?>
<svg width="512px" height="512px" viewBox="0 0 512 512" version="1.1" xmlns="http://www.w3.org/2000/svg" xmlns:xlink="http://www.w3.org/1999/xlink">
    <!-- Generator: Sketch 58 (84663) - https://sketch.com -->
    <title>012-startup</title>
    <desc>Created with Sketch.</desc>
    <g id="Page-1" stroke="none" stroke-width="1" fill="none" fill-rule="evenodd">
        <g id="012-startup" fill="#8D99FF" fill-rule="nonzero">
            <path d="M277.210938,220.640625 C273.3125,224.550781 273.3125,230.878906 277.210938,234.789062 C281.121094,238.691406 287.449219,238.691406 291.359375,234.789062 C295.261719,230.878906 295.261719,224.550781 291.359375,220.640625 C287.449219,216.738281 281.121094,216.738281 277.210938,220.640625 Z" id="Path"></path>
            <path d="M481.488281,143 C510.433594,76.058594 511.949219,12.929688 512.001746,10.1875 C512.050781,7.46875 510.992188,4.851562 509.070312,2.929688 C507.195312,1.050781 504.652344,0 502,0 C501.9375,0 501.875,0 501.8125,0 C499.058594,0.0546875 435.3125,1.582031 368,30.949219 C336.511719,44.6875 307.304688,63.273438 283.210938,87.371094 C269.796875,100.78125 256.5625,115.441406 243.800781,130.984375 C172.378906,118.6875 145.976562,158.679688 118.070312,200.960938 C106.082031,219.121094 93.6875,237.898438 76.800781,254.789062 C73.792969,257.796875 73.015625,262.375 74.863281,266.203125 C76.699219,270.011719 80.746094,272.277344 85,271.796875 L153.796875,263.96875 C151.714844,267.453125 150.875,268.863281 145.046875,278.621094 C143.59375,281.046875 143.242188,283.976562 144.070312,286.683594 C144.878906,289.3125 145.785156,291.929688 146.773438,294.515625 L114.488281,326.800781 C111.253906,330.035156 110.628906,335.054688 112.96875,338.988281 C120.320312,351.332031 129.15625,362.695312 139.230469,372.773438 C149.304688,382.847656 160.667969,391.683594 173.015625,399.03125 C176.960938,401.382812 181.980469,400.734375 185.203125,397.511719 L217.484375,365.226562 C220.070312,366.214844 222.6875,367.125 225.320312,367.929688 C228.015625,368.757812 230.949219,368.40625 233.378906,366.953125 C243.109375,361.144531 244.644531,360.226562 248.03125,358.203125 L240.203125,427 C239.726562,431.222656 241.964844,435.292969 245.796875,437.136719 C249.660156,439 254.226562,438.183594 257.210938,435.203125 C272.105469,420.3125 290.015625,408.691406 307.339844,397.457031 C349.746094,369.949219 393.550781,341.527344 381.011719,268.203125 C396.558594,255.4375 411.21875,242.203125 424.632812,228.792969 C448.988281,204.433594 467.707031,174.863281 481.488281,143 L481.488281,143 Z M463.703125,133.707031 C443.714844,127.476562 425.449219,116.457031 410.496094,101.511719 C395.546875,86.554688 384.523438,68.289062 378.296875,48.296875 C425.34375,28.242188 471.101562,22.355469 491.34375,20.664062 C489.667969,40.886719 483.808594,86.5625 463.703125,133.707031 Z M134.761719,211.976562 C160.199219,173.441406 179.238281,144.605469 229.355469,149.210938 C204.867188,181.21875 184.222656,213.734375 166.820312,242.359375 L108.644531,248.976562 C118.597656,236.46875 127.015625,223.714844 134.761719,211.976562 Z M176.703125,377.726562 C168.289062,372.125 160.464844,365.722656 153.371094,358.628906 C146.277344,351.535156 139.875,343.710938 134.277344,335.296875 L156.023438,313.550781 C161.191406,322.207031 167.386719,330.207031 174.589844,337.410156 C181.792969,344.613281 189.792969,350.808594 198.449219,355.976562 L176.703125,377.726562 Z M296.453125,380.675781 C285.296875,387.914062 273.902344,395.304688 262.984375,403.71875 L269.644531,345.183594 C298.257812,327.785156 330.761719,307.148438 362.757812,282.671875 C367.351562,334.683594 335.652344,355.253906 296.453125,380.675781 L296.453125,380.675781 Z M227.042969,347.441406 C212.601562,342.335938 199.609375,334.144531 188.730469,323.269531 C178.046875,312.585938 169.757812,299.660156 164.558594,284.957031 C203.25,220.144531 241.230469,157.628906 297.351562,101.511719 C314.726562,84.136719 335.773438,69.128906 360.03125,56.800781 C367.351562,78.875 379.746094,99.039062 396.351562,115.652344 C412.960938,132.253906 433.125,144.652344 455.199219,151.96875 C442.871094,176.226562 427.863281,197.273438 410.488281,214.648438 C354.472656,270.664062 291.738281,308.824219 227.042969,347.441406 Z" id="Shape"></path>
            <path d="M248.929688,248.929688 L206.5,291.359375 C202.59375,295.265625 202.59375,301.597656 206.5,305.503906 C210.40625,309.40625 216.738281,309.40625 220.644531,305.503906 L263.074219,263.070312 C266.976562,259.167969 266.976562,252.835938 263.074219,248.929688 C259.164062,245.023438 252.835938,245.023438 248.929688,248.929688 L248.929688,248.929688 Z" id="Path"></path>
            <path d="M318.570312,136.859375 C302.972656,152.457031 302.972656,177.835938 318.570312,193.429688 C334.167969,209.027344 359.542969,209.027344 375.144531,193.429688 C390.726562,177.832031 390.726562,152.457031 375.140625,136.855469 C359.542969,121.273438 334.167969,121.273438 318.570312,136.859375 L318.570312,136.859375 Z M361,179.289062 C353.203125,187.085938 340.507812,187.089844 332.710938,179.289062 C324.914062,171.488281 324.914062,158.800781 332.707031,151.003906 C340.5,143.21875 353.191406,143.203125 360.996094,151 C368.789062,158.796875 368.792969,171.488281 361,179.289062 L361,179.289062 Z" id="Shape"></path>
            <path d="M65.078125,390.351562 C58.757812,396.671875 62.257812,393.339844 1.363281,496.960938 C-0.925781,500.886719 -0.285156,505.859375 2.929688,509.070312 C6.140625,512.285156 11.117188,512.925781 15.039062,510.636719 C118.867188,449.621094 115.324219,453.242188 121.652344,446.917969 C137.234375,431.320312 137.234375,405.945312 121.648438,390.34375 C106.054688,374.765625 80.675781,374.761719 65.078125,390.351562 Z M107.507812,404.488281 C115.300781,412.289062 115.300781,424.980469 107.511719,432.777344 C104.324219,435.964844 108.257812,432.882812 37.789062,474.210938 C78.730469,404.410156 76.015625,407.699219 79.21875,404.496094 C87.011719,396.707031 99.703125,396.691406 107.507812,404.488281 L107.507812,404.488281 Z" id="Shape"></path>
        </g>
    </g>
</svg>