<?xml version="1.0" encoding="UTF-8"?>
<svg width="461px" height="512px" viewBox="0 0 461 512" version="1.1" xmlns="http://www.w3.org/2000/svg" xmlns:xlink="http://www.w3.org/1999/xlink">
    <!-- Generator: Sketch 58 (84663) - https://sketch.com -->
    <title>011-idea</title>
    <desc>Created with Sketch.</desc>
    <g id="Page-1" stroke="none" stroke-width="1" fill="none" fill-rule="evenodd">
        <g id="011-idea" fill="#8D99FF" fill-rule="nonzero">
            <path d="M150.449219,150.003906 C150.449219,155.527344 145.972656,160.003906 140.449219,160.003906 C134.925781,160.003906 130.449219,155.527344 130.449219,150.003906 C130.449219,144.480469 134.925781,140.003906 140.449219,140.003906 C145.972656,140.003906 150.449219,144.480469 150.449219,150.003906 Z" id="Path"></path>
            <path d="M230.4375,60.003906 C235.960938,60.003906 240.4375,55.527344 240.4375,50.003906 C240.4375,44.480469 235.960938,40.003906 230.4375,40.003906 C188.019531,40.003906 150.082031,66.929688 136.042969,107.007812 C134.214844,112.21875 136.960938,117.925781 142.171875,119.75 C147.351562,121.566406 153.078125,118.863281 154.917969,113.617188 C166.152344,81.550781 196.5,60.003906 230.4375,60.003906 Z" id="Path"></path>
            <path d="M0.5,129.773438 C0.5,135.292969 4.976562,139.773438 10.5,139.773438 L50.5,139.773438 C56.023438,139.773438 60.5,135.292969 60.5,129.773438 C60.5,124.25 56.023438,120.003906 50.5,120.003906 L10.5,120.003906 C4.976562,120.003906 0.5,124.25 0.5,129.773438 Z" id="Path"></path>
            <path d="M460.496094,129.773438 C460.496094,124.25 456.019531,120.003906 450.496094,120.003906 L410.496094,120.003906 C404.972656,120.003906 400.496094,124.25 400.496094,129.773438 C400.496094,135.292969 404.972656,139.773438 410.496094,139.773438 L450.496094,139.773438 C456.019531,139.773438 460.496094,135.292969 460.496094,129.773438 Z" id="Path"></path>
            <path d="M44.980469,248.433594 L79.617188,228.433594 C84.402344,225.671875 86.039062,219.554688 83.277344,214.773438 C80.515625,209.988281 74.402344,208.347656 69.617188,211.113281 L34.980469,231.113281 C30.195312,233.875 28.558594,239.988281 31.320312,244.773438 C34.089844,249.570312 40.210938,251.183594 44.980469,248.433594 Z" id="Path"></path>
            <path d="M416.027344,11.113281 L381.386719,31.113281 C376.605469,33.875 374.964844,39.992188 377.726562,44.773438 C380.496094,49.574219 386.617188,51.1875 391.386719,48.433594 L426.027344,28.433594 C430.808594,25.671875 432.449219,19.558594 429.6875,14.773438 C426.921875,9.992188 420.808594,8.351562 416.027344,11.113281 L416.027344,11.113281 Z" id="Path"></path>
            <path d="M31.320312,14.773438 C28.558594,19.558594 30.195312,25.671875 34.980469,28.433594 L69.617188,48.433594 C74.390625,51.1875 80.511719,49.566406 83.277344,44.773438 C86.039062,39.992188 84.402344,33.875 79.617188,31.113281 L44.980469,11.113281 C40.199219,8.355469 34.082031,9.992188 31.320312,14.773438 Z" id="Path"></path>
            <path d="M416.027344,248.433594 C420.796875,251.1875 426.917969,249.566406 429.6875,244.773438 C432.449219,239.988281 430.808594,233.875 426.027344,231.113281 L391.386719,211.113281 C386.605469,208.351562 380.488281,209.988281 377.726562,214.773438 C374.964844,219.554688 376.605469,225.671875 381.386719,228.433594 L416.027344,248.433594 Z" id="Path"></path>
            <path d="M22.488281,508.046875 C24.378906,510.539062 27.324219,512 30.449219,512 L430.445312,512 C433.570312,512 436.519531,510.539062 438.410156,508.046875 C440.300781,505.558594 440.917969,502.328125 440.078125,499.316406 C440.078125,499.316406 416.683594,415.339844 416.664062,415.277344 C411.542969,398.203125 397.582031,385.054688 380.226562,380.964844 L266.246094,354.152344 C281.460938,342.785156 290.445312,325.191406 290.445312,306 C290.445312,287.609375 299.792969,263.3125 315.820312,250.972656 C349.996094,224.636719 371.300781,183.195312 370.414062,137.242188 C368.988281,63.023438 306.730469,1.09375 232.511719,0.015625 C154.332031,-1.125 90.449219,61.785156 90.449219,140.003906 C90.449219,184.207031 110.675781,224.894531 145.9375,251.632812 C160.945312,263.003906 170.449219,286.539062 170.449219,306 C170.449219,325.691406 179.984375,343.195312 194.683594,354.144531 C69.0625,383.699219 157.105469,362.984375 80.667969,380.964844 C63.3125,385.054688 49.351562,398.199219 44.230469,415.277344 C44.210938,415.339844 20.816406,499.316406 20.816406,499.316406 C19.976562,502.328125 20.59375,505.558594 22.488281,508.046875 Z M230.449219,400.816406 L205.382812,372.171875 L230.449219,366.273438 L255.511719,372.171875 L230.449219,400.816406 Z M183.347656,377.355469 L215.414062,414.003906 L175.007812,440.941406 L151.621094,384.820312 L183.347656,377.355469 Z M277.550781,377.355469 L309.273438,384.820312 L285.886719,440.941406 L245.480469,414.003906 L277.550781,377.355469 Z M270.324219,309 C268.816406,329.453125 251.765625,346 230.449219,346 C209.425781,346 192.152344,329.695312 190.578125,309 L270.324219,309 Z M158.019531,235.695312 C127.789062,212.769531 110.449219,177.890625 110.449219,140.003906 C110.449219,73.101562 165.078125,19.027344 232.222656,20.015625 C295.082031,20.929688 349.210938,74.789062 350.417969,137.625 C351.160156,176.097656 334.101562,211.636719 303.617188,235.128906 C287.273438,247.710938 276.261719,268.613281 272.207031,289.003906 L240.449219,289.003906 L240.449219,202.519531 L261.011719,182.679688 C264.984375,178.847656 265.097656,172.515625 261.261719,168.539062 C257.429688,164.566406 251.097656,164.453125 247.125,168.289062 L230.445312,184.378906 L213.769531,168.289062 C209.792969,164.453125 203.464844,164.566406 199.628906,168.539062 C195.796875,172.515625 195.910156,178.847656 199.882812,182.679688 L220.445312,202.519531 L220.445312,289.003906 L188.761719,289.003906 C184.59375,267.363281 173.0625,247.09375 158.019531,235.695312 Z M63.414062,420.9375 C66.507812,410.730469 74.867188,402.878906 85.25,400.433594 L131.890625,389.460938 L161.21875,459.847656 C163.640625,465.664062 170.773438,467.804688 175.996094,464.320312 L230.449219,428.019531 L284.898438,464.320312 C290.121094,467.804688 297.253906,465.664062 299.675781,459.847656 L329.003906,389.460938 L375.644531,400.433594 C386.027344,402.878906 394.386719,410.730469 397.480469,420.9375 L417.277344,492 L43.617188,492 L63.414062,420.9375 Z" id="Shape"></path>
        </g>
    </g>
</svg>